<?xml version="1.0" standalone="no"?>
<!DOCTYPE svg PUBLIC "-//W3C//DTD SVG 20010904//EN"
 "http://www.w3.org/TR/2001/REC-SVG-20010904/DTD/svg10.dtd">
<svg version="1.0" xmlns="http://www.w3.org/2000/svg"
 width="1280.000000pt" height="1280.000000pt" viewBox="0 0 1280.000000 1280.000000"
 preserveAspectRatio="xMidYMid meet">
<metadata>
Created by potrace 1.14, written by Peter Selinger 2001-2017
</metadata>
<g transform="translate(0.000000,1280.000000) scale(0.100000,-0.100000)"
fill="#000000" stroke="none">
<path d="M6228 11415 c-2 -1 -44 -6 -94 -9 -112 -9 -165 -14 -224 -21 -25 -3
-58 -7 -75 -9 -16 -2 -57 -9 -90 -15 -33 -5 -76 -12 -96 -15 -194 -28 -599
-139 -830 -226 -634 -241 -1179 -591 -1644 -1055 -297 -297 -481 -530 -702
-890 -63 -102 -196 -358 -252 -485 -167 -373 -301 -852 -346 -1235 -3 -27 -8
-59 -10 -70 -3 -17 -10 -104 -20 -250 -1 -16 -3 -71 -4 -120 l-1 -90 -107 -52
c-346 -168 -556 -269 -618 -298 -38 -18 -149 -71 -245 -117 -96 -47 -220 -106
-274 -133 -55 -26 -185 -88 -290 -139 -105 -50 -215 -103 -243 -116 -29 -14
-53 -27 -53 -31 0 -3 19 -11 43 -18 23 -7 51 -16 62 -21 34 -15 544 -173 1055
-326 47 -14 96 -29 110 -34 14 -5 102 -31 195 -59 94 -27 211 -62 260 -76 50
-15 122 -36 160 -46 169 -48 205 -61 205 -73 0 -11 30 -92 59 -161 99 -231
212 -468 251 -525 10 -14 30 -47 45 -75 67 -123 352 -531 419 -601 6 -6 38
-42 70 -80 33 -38 123 -133 200 -212 78 -78 143 -145 145 -148 3 -2 -5 -11
-16 -19 -50 -35 -166 -152 -224 -226 -267 -339 -315 -722 -134 -1084 190 -381
565 -651 1100 -793 148 -40 208 -50 395 -71 76 -9 447 -7 487 3 12 2 46 7 75
11 29 3 60 7 68 9 20 4 79 15 110 20 57 10 221 57 305 86 137 49 328 145 445
224 200 135 397 359 476 541 l28 65 161 1 c88 0 168 2 177 4 10 2 64 6 120 10
57 4 112 9 123 11 11 3 53 7 93 11 65 5 72 4 72 -12 0 -10 22 -64 50 -119 98
-198 258 -376 470 -520 230 -156 612 -295 915 -332 28 -3 77 -9 109 -13 70
-10 416 -7 496 3 270 35 489 93 712 191 514 225 847 655 850 1095 1 168 -29
293 -108 450 -128 256 -338 458 -641 617 -129 67 -122 62 -103 76 8 7 44 46
80 87 36 41 69 80 75 86 5 6 24 28 40 49 17 20 35 42 40 49 6 6 46 58 89 116
226 303 405 616 556 975 4 11 23 58 42 104 18 46 40 88 48 92 79 45 361 199
365 199 3 0 22 11 43 23 20 13 64 39 97 57 119 65 728 412 885 503 19 11 60
34 90 50 30 17 62 36 70 42 8 7 33 22 55 34 85 45 315 186 315 194 0 4 -8 10
-17 14 -10 3 -36 14 -58 24 -68 29 -1244 544 -1345 588 -52 23 -104 46 -115
51 -11 5 -49 22 -85 38 l-66 29 -12 119 c-12 119 -17 158 -28 224 -4 19 -8 49
-10 65 -3 17 -7 41 -10 55 -3 14 -8 39 -11 55 -12 76 -88 369 -129 498 -81
252 -214 559 -336 779 -93 166 -120 211 -196 326 -275 413 -555 717 -987 1071
-191 156 -523 366 -794 501 -115 57 -139 69 -276 128 -339 147 -815 277 -1195
327 -25 3 -56 8 -70 10 -14 2 -61 7 -105 11 -44 3 -93 8 -110 11 -32 5 -602
13 -607 8z"/>
</g>
</svg>
